<svg width="50" height="50" viewBox="0 0 50 50" fill="none" xmlns="http://www.w3.org/2000/svg">
<path d="M41.4543 33.333H16.4543C14.5168 33.333 13.5481 33.333 12.7522 33.5455C11.6925 33.8297 10.7262 34.3878 9.95053 35.1639C9.17487 35.9399 8.61717 36.9064 8.3335 37.9663" stroke="#2A6DF5" stroke-width="3"/>
<path d="M16.6668 14.5832H33.3335M16.6668 21.8748H27.0835M40.6252 39.5832H16.6668M20.8335 45.8332C14.9418 45.8332 11.9939 45.8332 10.1647 44.0019C8.3335 42.1728 8.3335 39.2248 8.3335 33.3332V16.6665C8.3335 10.7748 8.3335 7.82692 10.1647 5.99775C11.9939 4.1665 14.9418 4.1665 20.8335 4.1665H29.1668C35.0585 4.1665 38.0064 4.1665 39.8356 5.99775C41.6668 7.82692 41.6668 10.7748 41.6668 16.6665M29.1668 45.8332C35.0585 45.8332 38.0064 45.8332 39.8356 44.0019C41.6668 42.1728 41.6668 39.2248 41.6668 33.3332V24.9998" stroke="#2A6DF5" stroke-width="3" stroke-linecap="round"/>
</svg>
