<svg width="50" height="50" viewBox="0 0 50 50" fill="none" xmlns="http://www.w3.org/2000/svg">
<path d="M20.8335 45.8332C14.9418 45.8332 11.9939 45.8332 10.1647 44.0019C8.3335 42.1728 8.3335 39.2248 8.3335 33.3332V16.6665C8.3335 10.7748 8.3335 7.82692 10.1647 5.99775C11.9939 4.1665 14.9418 4.1665 20.8335 4.1665H29.1668C35.0585 4.1665 38.0064 4.1665 39.8356 5.99775C41.6668 7.82692 41.6668 10.7748 41.6668 16.6665M29.1668 45.8332C35.0585 45.8332 38.0064 45.8332 39.8356 44.0019C41.6668 42.1728 41.6668 39.2248 41.6668 33.3332V24.9998" stroke="#2A6DF5" stroke-width="3" stroke-linecap="round"/>
<path d="M41.4543 33.333H16.4543C14.5168 33.333 13.5481 33.333 12.7522 33.5455C11.6925 33.8297 10.7262 34.3878 9.95053 35.1639C9.17487 35.9399 8.61717 36.9064 8.3335 37.9663" stroke="#2A6DF5" stroke-width="3"/>
<path d="M14.5835 33.333V18.7497M14.5835 5.20801V10.4163M27.0835 33.333V40.6872C27.0835 41.2622 27.0835 41.5497 26.8856 41.6663C26.6877 41.783 26.4189 41.6538 25.8772 41.3955L23.2897 40.1663C23.1064 40.083 23.0147 40.0372 22.9168 40.0372C22.8189 40.0372 22.7272 40.0809 22.5439 40.1684L19.9564 41.3976C19.4147 41.6538 19.1439 41.783 18.9481 41.6663C18.7502 41.5497 18.7502 41.2622 18.7502 40.6872V34.2705" stroke="#2A6DF5" stroke-width="3" stroke-linecap="round"/>
</svg>
