<svg width="50" height="50" viewBox="0 0 50 50" fill="none" xmlns="http://www.w3.org/2000/svg">
<path d="M16.6667 24.9998H18.75M33.3333 24.9998H25M33.3333 16.6665H31.25M25 16.6665H16.6667M16.6667 33.3332H27.0833M6.25 29.1665V20.8332C6.25 12.9769 6.25 9.04775 8.69167 6.60817C11.1312 4.1665 15.0604 4.1665 22.9167 4.1665H27.0833C34.9396 4.1665 38.8687 4.1665 41.3083 6.60817C42.6708 7.96859 43.2729 9.7915 43.5375 12.4998M43.75 20.8332V29.1665C43.75 37.0228 43.75 40.9519 41.3083 43.3915C38.8687 45.8332 34.9396 45.8332 27.0833 45.8332H22.9167C15.0604 45.8332 11.1312 45.8332 8.69167 43.3915C7.32917 42.0311 6.72708 40.2082 6.4625 37.4998" stroke="#2A6DF5" stroke-width="3.125" stroke-linecap="round"/>
</svg>
