<svg width="50" height="50" viewBox="0 0 50 50" fill="none" xmlns="http://www.w3.org/2000/svg">
<path fill-rule="evenodd" clip-rule="evenodd" d="M22.8082 2.604H27.1915C29.0644 2.604 30.6248 2.604 31.8623 2.77067C33.1707 2.94567 34.3519 3.33317 35.2998 4.28109C36.2498 5.23109 36.6373 6.41234 36.8123 7.71859C36.8603 8.07275 36.8957 8.44984 36.9165 8.854C38.1457 8.854 39.1832 8.86234 40.0394 8.94984C41.0248 9.04984 41.9415 9.26859 42.7665 9.81859C43.3915 10.2373 43.929 10.7748 44.3478 11.4019C44.8978 12.2248 45.1165 13.1415 45.2165 14.1269C45.3123 15.0686 45.3123 16.2332 45.3123 17.6269V44.2707H45.8332C46.2476 44.2707 46.645 44.4353 46.938 44.7283C47.231 45.0213 47.3957 45.4188 47.3957 45.8332C47.3957 46.2476 47.231 46.645 46.938 46.938C46.645 47.231 46.2476 47.3957 45.8332 47.3957H4.1665C3.7521 47.3957 3.35468 47.231 3.06165 46.938C2.76862 46.645 2.604 46.2476 2.604 45.8332C2.604 45.4188 2.76862 45.0213 3.06165 44.7283C3.35468 44.4353 3.7521 44.2707 4.1665 44.2707H4.68734V17.629C4.68734 16.2332 4.68734 15.0686 4.78317 14.1269C4.88317 13.1415 5.10192 12.2248 5.65192 11.3998C6.07067 10.7748 6.60817 10.2373 7.23525 9.81859C8.05817 9.26859 8.97484 9.04984 9.96025 8.94984C10.8144 8.86234 11.854 8.854 13.0811 8.854C13.1061 8.44984 13.1394 8.07275 13.1853 7.72067C13.3623 6.41234 13.7498 5.23109 14.6978 4.28317C15.6478 3.33317 16.829 2.94567 18.1353 2.77067C19.3748 2.604 20.9373 2.604 22.8082 2.604ZM13.0207 11.979C11.8061 11.979 10.9498 11.9894 10.2769 12.0582C9.53734 12.1332 9.19567 12.2665 8.97067 12.4186C8.6862 12.6086 8.44197 12.8529 8.25192 13.1373C8.09984 13.3623 7.9665 13.704 7.8915 14.4436C7.81442 15.2082 7.81234 16.2144 7.81234 17.7082V44.2707H13.0207V30.729H11.4582C11.0438 30.729 10.6463 30.5644 10.3533 30.2714C10.0603 29.9783 9.89567 29.5809 9.89567 29.1665C9.89567 28.7521 10.0603 28.3547 10.3533 28.0616C10.6463 27.7686 11.0438 27.604 11.4582 27.604H13.0207V24.479H11.4582C11.0438 24.479 10.6463 24.3144 10.3533 24.0214C10.0603 23.7283 9.89567 23.3309 9.89567 22.9165C9.89567 22.5021 10.0603 22.1047 10.3533 21.8116C10.6463 21.5186 11.0438 21.354 11.4582 21.354H13.0207V18.229H11.4582C11.0438 18.229 10.6463 18.0644 10.3533 17.7714C10.0603 17.4783 9.89567 17.0809 9.89567 16.6665C9.89567 16.2521 10.0603 15.8547 10.3533 15.5616C10.6463 15.2686 11.0438 15.104 11.4582 15.104H13.0207V11.979ZM16.1457 44.2707H23.4373V39.5832C23.4373 39.1688 23.602 38.7713 23.895 38.4783C24.188 38.1853 24.5854 38.0207 24.9998 38.0207C25.4142 38.0207 25.8117 38.1853 26.1047 38.4783C26.3977 38.7713 26.5623 39.1688 26.5623 39.5832V44.2707H33.854V12.4998C33.854 10.4915 33.8498 9.1415 33.7144 8.13525C33.5853 7.17484 33.3623 6.76234 33.0894 6.4915C32.8186 6.22067 32.4082 5.99775 31.4478 5.8665C30.4415 5.73317 29.0915 5.729 27.0832 5.729H22.9165C20.9082 5.729 19.5582 5.73317 18.5519 5.86859C17.5915 5.99775 17.179 6.22067 16.9082 6.49359C16.6373 6.76442 16.4144 7.17484 16.2832 8.13525C16.1519 9.1415 16.1457 10.4915 16.1457 12.4998V44.2707ZM36.979 18.229H38.5415C38.9559 18.229 39.3533 18.0644 39.6464 17.7714C39.9394 17.4783 40.104 17.0809 40.104 16.6665C40.104 16.2521 39.9394 15.8547 39.6464 15.5616C39.3533 15.2686 38.9559 15.104 38.5415 15.104H36.979V11.979C38.1936 11.979 39.0498 11.9894 39.7228 12.0582C40.4623 12.1332 40.804 12.2665 41.0311 12.4186C41.3144 12.6061 41.5582 12.8519 41.7478 13.1373C41.8998 13.3623 42.0332 13.704 42.1082 14.4436C42.1853 15.2082 42.1873 16.2144 42.1873 17.7082V44.2707H36.979V30.729H38.5415C38.9559 30.729 39.3533 30.5644 39.6464 30.2714C39.9394 29.9783 40.104 29.5809 40.104 29.1665C40.104 28.7521 39.9394 28.3547 39.6464 28.0616C39.3533 27.7686 38.9559 27.604 38.5415 27.604H36.979V24.479H38.5415C38.9559 24.479 39.3533 24.3144 39.6464 24.0214C39.9394 23.7283 40.104 23.3309 40.104 22.9165C40.104 22.5021 39.9394 22.1047 39.6464 21.8116C39.3533 21.5186 38.9559 21.354 38.5415 21.354H36.979V18.229ZM24.9998 11.979C24.3092 11.979 23.6468 12.2534 23.1584 12.7417C22.67 13.2301 22.3957 13.8925 22.3957 14.5832C22.3957 15.2738 22.67 15.9362 23.1584 16.4246C23.6468 16.913 24.3092 17.1873 24.9998 17.1873C25.6905 17.1873 26.3529 16.913 26.8413 16.4246C27.3296 15.9362 27.604 15.2738 27.604 14.5832C27.604 13.8925 27.3296 13.2301 26.8413 12.7417C26.3529 12.2534 25.6905 11.979 24.9998 11.979ZM19.2707 14.5832C19.2707 13.0637 19.8743 11.6065 20.9487 10.532C22.0231 9.45761 23.4804 8.854 24.9998 8.854C26.5193 8.854 27.9765 9.45761 29.051 10.532C30.1254 11.6065 30.729 13.0637 30.729 14.5832C30.729 16.1026 30.1254 17.5599 29.051 18.6343C27.9765 19.7087 26.5193 20.3123 24.9998 20.3123C23.4804 20.3123 22.0231 19.7087 20.9487 18.6343C19.8743 17.5599 19.2707 16.1026 19.2707 14.5832ZM19.2707 24.9998C19.2707 24.5854 19.4353 24.188 19.7283 23.895C20.0213 23.602 20.4188 23.4373 20.8332 23.4373H29.1665C29.5809 23.4373 29.9783 23.602 30.2714 23.895C30.5644 24.188 30.729 24.5854 30.729 24.9998C30.729 25.4142 30.5644 25.8117 30.2714 26.1047C29.9783 26.3977 29.5809 26.5623 29.1665 26.5623H20.8332C20.4188 26.5623 20.0213 26.3977 19.7283 26.1047C19.4353 25.8117 19.2707 25.4142 19.2707 24.9998ZM19.2707 31.2498C19.2707 30.8354 19.4353 30.438 19.7283 30.145C20.0213 29.852 20.4188 29.6873 20.8332 29.6873H29.1665C29.5809 29.6873 29.9783 29.852 30.2714 30.145C30.5644 30.438 30.729 30.8354 30.729 31.2498C30.729 31.6642 30.5644 32.0617 30.2714 32.3547C29.9783 32.6477 29.5809 32.8123 29.1665 32.8123H20.8332C20.4188 32.8123 20.0213 32.6477 19.7283 32.3547C19.4353 32.0617 19.2707 31.6642 19.2707 31.2498Z" fill="#2A6DF5"/>
</svg>
