<svg width="50" height="50" viewBox="0 0 50 50" fill="none" xmlns="http://www.w3.org/2000/svg">
<path d="M45.8332 45.833H4.1665" stroke="#2A6DF5" stroke-width="3.125" stroke-linecap="round"/>
<path d="M35.4167 45.8332V12.4998C35.4167 8.57067 35.4167 6.60817 34.1958 5.38734C32.975 4.1665 31.0125 4.1665 27.0833 4.1665H22.9167C18.9875 4.1665 17.025 4.1665 15.8042 5.38734C14.5833 6.60817 14.5833 8.57067 14.5833 12.4998V45.8332M43.75 45.8332V23.9582C43.75 21.0311 43.75 19.5686 43.0479 18.5186C42.7438 18.0634 42.3531 17.6727 41.8979 17.3686C40.8479 16.6665 39.3833 16.6665 36.4583 16.6665M6.25 45.8332V23.9582C6.25 21.0311 6.25 19.5686 6.95208 18.5186C7.25616 18.0634 7.64693 17.6727 8.10208 17.3686C9.15208 16.6665 10.6167 16.6665 13.5417 16.6665" stroke="#2A6DF5" stroke-width="3.125"/>
<path d="M24.9997 45.8332V39.5832M20.833 10.4165H29.1663M20.833 16.6665H29.1663M20.833 22.9165H29.1663M20.833 29.1665H29.1663" stroke="#2A6DF5" stroke-width="3.125" stroke-linecap="round"/>
</svg>
