<svg width="50" height="50" viewBox="0 0 50 50" fill="none" xmlns="http://www.w3.org/2000/svg">
<path d="M25.0003 20.8332C29.6027 20.8332 33.3337 17.1022 33.3337 12.4998C33.3337 7.89746 29.6027 4.1665 25.0003 4.1665C20.398 4.1665 16.667 7.89746 16.667 12.4998C16.667 17.1022 20.398 20.8332 25.0003 20.8332Z" stroke="#2A6DF5" stroke-width="3.125"/>
<path d="M37.5 18.7497C40.9521 18.7497 43.75 16.4163 43.75 13.5413C43.75 10.6663 40.9521 8.33301 37.5 8.33301M12.5 18.7497C9.04792 18.7497 6.25 16.4163 6.25 13.5413C6.25 10.6663 9.04792 8.33301 12.5 8.33301" stroke="#2A6DF5" stroke-width="3.125" stroke-linecap="round"/>
<path d="M25 43.7497C31.9036 43.7497 37.5 40.0187 37.5 35.4163C37.5 30.814 31.9036 27.083 25 27.083C18.0964 27.083 12.5 30.814 12.5 35.4163C12.5 40.0187 18.0964 43.7497 25 43.7497Z" stroke="#2A6DF5" stroke-width="3.125"/>
<path d="M41.6668 39.5832C45.321 38.7811 47.9168 36.7519 47.9168 34.3748C47.9168 31.9978 45.321 29.9686 41.6668 29.1665M8.3335 39.5832C4.67933 38.7811 2.0835 36.7519 2.0835 34.3748C2.0835 31.9978 4.67933 29.9686 8.3335 29.1665" stroke="#2A6DF5" stroke-width="3.125" stroke-linecap="round"/>
</svg>
